<?xml version="1.0" encoding="utf-8"?>
<!-- Generator: Adobe Illustrator 22.0.1, SVG Export Plug-In . SVG Version: 6.00 Build 0)  -->
<svg version="1.1" id="Layer_1" xmlns="http://www.w3.org/2000/svg" xmlns:xlink="http://www.w3.org/1999/xlink" x="0px" y="0px"
	 viewBox="0 0 15 15" style="enable-background:new 0 0 15 15;" xml:space="preserve">
<style type="text/css">
	.st0{fill:#262626;}
</style>
<g>
	<path class="st0" d="M3.3,2.1c0,0.9-0.7,1.6-1.7,1.6C0.6,3.6,0,2.9,0,2.1c0-0.9,0.6-1.6,1.7-1.6C2.7,0.5,3.3,1.1,3.3,2.1z M0.1,15
		V4.9h3.1V15H0.1z"/>
	<path class="st0" d="M5.1,8.1c0-1.3,0-2.3-0.1-3.2h2.7l0.1,1.4H8c0.4-0.6,1.4-1.6,3.1-1.6c2.1,0,3.6,1.4,3.6,4.3v6h-3.1V9.4
		c0-1.3-0.5-2.2-1.6-2.2c-0.9,0-1.4,0.6-1.6,1.2C8.3,8.5,8.2,8.9,8.2,9.1V15H5.1V8.1z"/>
</g>
</svg>
