<?xml version="1.0" encoding="utf-8"?>
<!-- Generator: Adobe Illustrator 22.0.1, SVG Export Plug-In . SVG Version: 6.00 Build 0)  -->
<svg version="1.1" id="Layer_1" xmlns="http://www.w3.org/2000/svg" xmlns:xlink="http://www.w3.org/1999/xlink" x="0px" y="0px"
	 viewBox="0 0 20 16" style="enable-background:new 0 0 20 16;" xml:space="preserve">
<style type="text/css">
	.st0{fill:#262626;}
</style>
<path id="_-e-twitter" class="st0" d="M10,5.1c-0.2-1.8,0.7-3.5,2.2-4.4c1.6-0.9,3.6-0.7,5,0.5c1-0.2,1.9-0.5,2.8-1.1
	c-0.4,1-0.9,2-1.7,2.7c0.6-0.1,1.1-0.3,1.7-0.5c-0.4,0.7-1,1.3-1.7,1.6C18.3,4,18.7,21,0,14.4c0,0,3.8-0.2,5-1.6
	C4,11.9,3.1,11,2.2,10c0.5,0.1,1.1,0.1,1.7,0c0,0-2.7-1.5-3.3-3.8c0.7,0.1,1.5,0.1,2.2,0c0,0-2.7-1.4-1.7-5.5
	C1.1,0.7,5.2,5.4,10,5.1z"/>
</svg>
